<svg xmlns="http://www.w3.org/2000/svg" viewBox="0 0 384 512">
  <path fill="white" d="M318.7 268.7c-.2-37.2 16.6-65.4 50.4-85.9-18.9-27.1-47.4-42-85.2-44.9-35.8-2.8-74.9 20.9-89.2 20.9-15.1 0-49.7-19.9-77-19.9-56.3.9-116.2 44.9-116.2 136.9 0 27.2 5 55.4 15 84.7 13.3 38.8 61.4 133.9 111.5 132.3 26.2-.6 44.7-18.6 78.8-18.6 33.1 0 50.2 18.6 79.4 18.6 50.6-.7 94.1-87.1 106.7-126.1-72.6-34.2-74.2-96.8-74.2-98zM243.4 96.3c27.5-32.6 25-62.2 24.2-72.3-24.3 1.4-52.4 16.5-68.4 35.1-17.6 20.1-28 44.8-25.8 72.5 26.2 2 50.4-11.4 70-35.3z"/>
</svg>