<svg xmlns="http://www.w3.org/2000/svg" viewBox="0 0 533.5 544.3">
  <path fill="#4285F4" d="M533.5 278.4c0-18.5-1.5-37-4.7-55H272v104h147.3c-6.3 33.9-25.4 62.7-54.2 81.9v68h87.6c51.3-47.2 80.8-116.8 80.8-198.9z"/>
  <path fill="#34A853" d="M272 544.3c73.5 0 135.2-24.3 180.3-66.9l-87.6-68c-24.3 16.3-55.4 25.8-92.7 25.8-71.2 0-131.6-48.1-153.2-112.8H28.2v70.8C73.9 484.8 166.2 544.3 272 544.3z"/>
  <path fill="#FBBC04" d="M118.8 322.4c-5.4-16.3-8.5-33.8-8.5-51.8s3.1-35.5 8.5-51.8V148H28.2C10 184.1 0 225.6 0 270.6s10 86.5 28.2 122.6l90.6-70.8z"/>
  <path fill="#EA4335" d="M272 107.7c39.9 0 75.8 13.8 104.1 40.7l78-78C406.9 24.3 345.5 0 272 0 166.2 0 73.9 59.5 28.2 148l90.6 70.8C140.4 155.8 200.8 107.7 272 107.7z"/>
</svg>